<?xml version="1.0" encoding="UTF-8" standalone="no"?>
<!DOCTYPE svg PUBLIC "-//W3C//DTD SVG 1.1//EN"
 "http://www.w3.org/Graphics/SVG/1.1/DTD/svg11.dtd">
<!-- Generated by graphviz version 2.36.0 (20140111.2315)
 -->
<!-- Title: %3 Pages: 1 -->
<svg width="238pt" height="308pt"
 viewBox="0.00 0.00 238.00 308.00" xmlns="http://www.w3.org/2000/svg" xmlns:xlink="http://www.w3.org/1999/xlink">
<g id="graph0" class="graph" transform="scale(1 1) rotate(0) translate(4 304)">
<title>%3</title>
<polygon fill="white" stroke="none" points="-4,4 -4,-304 234,-304 234,4 -4,4"/>
<!-- A -->
<g id="node1" class="node"><title>A</title>
<ellipse fill="none" stroke="black" cx="144" cy="-282" rx="55.3682" ry="18"/>
<text text-anchor="middle" x="144" y="-278.3" font-family="Times,serif" font-size="14.00">Is sex male?</text>
</g>
<!-- B -->
<g id="node2" class="node"><title>B</title>
<ellipse fill="none" stroke="black" cx="57" cy="-194" rx="57.2927" ry="18"/>
<text text-anchor="middle" x="57" y="-190.3" font-family="Times,serif" font-size="14.00">Is age &gt; 9.5?</text>
</g>
<!-- A&#45;&gt;B -->
<g id="edge1" class="edge"><title>A&#45;&gt;B</title>
<path fill="none" stroke="black" d="M127.226,-264.418C114.022,-251.367 95.4565,-233.014 80.7301,-218.457"/>
<polygon fill="black" stroke="black" points="83.0003,-215.78 73.4279,-211.239 78.0792,-220.758 83.0003,-215.78"/>
<text text-anchor="middle" x="120" y="-234.3" font-family="Times,serif" font-size="14.00">Yes</text>
</g>
<!-- C -->
<g id="node3" class="node"><title>C</title>
<ellipse fill="none" stroke="black" cx="174" cy="-194" rx="42.3701" ry="18"/>
<text text-anchor="middle" x="174" y="-190.3" font-family="Times,serif" font-size="14.00">Survived</text>
</g>
<!-- A&#45;&gt;C -->
<g id="edge2" class="edge"><title>A&#45;&gt;C</title>
<path fill="none" stroke="black" d="M149.927,-264.009C154.159,-251.877 159.935,-235.32 164.768,-221.465"/>
<polygon fill="black" stroke="black" points="168.096,-222.55 168.085,-211.956 161.487,-220.245 168.096,-222.55"/>
<text text-anchor="middle" x="170.5" y="-234.3" font-family="Times,serif" font-size="14.00">No</text>
</g>
<!-- D -->
<g id="node4" class="node"><title>D</title>
<ellipse fill="none" stroke="black" cx="35" cy="-106" rx="27.4223" ry="18"/>
<text text-anchor="middle" x="35" y="-102.3" font-family="Times,serif" font-size="14.00">Died</text>
</g>
<!-- B&#45;&gt;D -->
<g id="edge3" class="edge"><title>B&#45;&gt;D</title>
<path fill="none" stroke="black" d="M52.6535,-176.009C49.58,-163.995 45.3965,-147.641 41.8735,-133.869"/>
<polygon fill="black" stroke="black" points="45.2067,-132.776 39.3375,-123.956 38.4251,-134.511 45.2067,-132.776"/>
<text text-anchor="middle" x="59" y="-146.3" font-family="Times,serif" font-size="14.00">Yes</text>
</g>
<!-- E -->
<g id="node5" class="node"><title>E</title>
<ellipse fill="none" stroke="black" cx="144" cy="-106" rx="63.0666" ry="18"/>
<text text-anchor="middle" x="144" y="-102.3" font-family="Times,serif" font-size="14.00">Is sibsp &gt; 2.5?</text>
</g>
<!-- B&#45;&gt;E -->
<g id="edge4" class="edge"><title>B&#45;&gt;E</title>
<path fill="none" stroke="black" d="M73.7745,-176.418C86.8934,-163.45 105.307,-145.248 119.988,-130.736"/>
<polygon fill="black" stroke="black" points="122.626,-133.05 127.277,-123.531 117.705,-128.072 122.626,-133.05"/>
<text text-anchor="middle" x="117.5" y="-146.3" font-family="Times,serif" font-size="14.00">No</text>
</g>
<!-- F -->
<g id="node6" class="node"><title>F</title>
<ellipse fill="none" stroke="black" cx="100" cy="-18" rx="27.4223" ry="18"/>
<text text-anchor="middle" x="100" y="-14.3" font-family="Times,serif" font-size="14.00">Died</text>
</g>
<!-- E&#45;&gt;F -->
<g id="edge5" class="edge"><title>E&#45;&gt;F</title>
<path fill="none" stroke="black" d="M135.307,-88.0092C128.958,-75.6 120.241,-58.5619 113.057,-44.5205"/>
<polygon fill="black" stroke="black" points="116.047,-42.6803 108.376,-35.372 109.815,-45.8687 116.047,-42.6803"/>
<text text-anchor="middle" x="137" y="-58.3" font-family="Times,serif" font-size="14.00">Yes</text>
</g>
<!-- G -->
<g id="node7" class="node"><title>G</title>
<ellipse fill="none" stroke="black" cx="188" cy="-18" rx="42.3701" ry="18"/>
<text text-anchor="middle" x="188" y="-14.3" font-family="Times,serif" font-size="14.00">Survived</text>
</g>
<!-- E&#45;&gt;G -->
<g id="edge6" class="edge"><title>E&#45;&gt;G</title>
<path fill="none" stroke="black" d="M152.693,-88.0092C159.001,-75.6796 167.647,-58.7801 174.805,-44.7909"/>
<polygon fill="black" stroke="black" points="178.036,-46.1596 179.475,-35.6629 171.804,-42.9712 178.036,-46.1596"/>
<text text-anchor="middle" x="178.5" y="-58.3" font-family="Times,serif" font-size="14.00">No</text>
</g>
</g>
</svg>
